<svg width="12" height="12" viewBox="0 0 12 12" fill="none" xmlns="http://www.w3.org/2000/svg">
<g clip-path="url(#clip0_437_6473)">
<path fill-rule="evenodd" clip-rule="evenodd" d="M6.00005 0.0219727C6.38665 0.0219727 6.70005 0.335373 6.70005 0.721973V11.2783C6.70005 11.6649 6.38665 11.9783 6.00005 11.9783C5.61345 11.9783 5.30005 11.6649 5.30005 11.2783V0.721973C5.30005 0.335373 5.61345 0.0219727 6.00005 0.0219727Z" fill="currentColor"/>
<path fill-rule="evenodd" clip-rule="evenodd" d="M0.0214844 5.9998C0.0214844 5.61321 0.334885 5.2998 0.721484 5.2998H11.2778C11.6644 5.2998 11.9778 5.61321 11.9778 5.9998C11.9778 6.3864 11.6644 6.6998 11.2778 6.6998H0.721484C0.334885 6.6998 0.0214844 6.3864 0.0214844 5.9998Z" fill="currentColor"/>
</g>
<defs>
<clipPath id="clip0_437_6473">
<rect width="12" height="12" fill="white"/>
</clipPath>
</defs>
</svg>
