<svg width="16" height="16" viewBox="0 0 16 16" fill="none" xmlns="http://www.w3.org/2000/svg">
<g id="&#232;&#128;&#129;&#229;&#184;&#136;">
<path id="Vector (Stroke)" fill-rule="evenodd" clip-rule="evenodd" d="M8.00117 2.7792C6.8897 2.7792 5.98867 3.68023 5.98867 4.7917C5.98867 5.90317 6.8897 6.8042 8.00117 6.8042C9.11265 6.8042 10.0137 5.90317 10.0137 4.7917C10.0137 3.68023 9.11265 2.7792 8.00117 2.7792ZM4.76367 4.7917C4.76367 3.00368 6.21315 1.5542 8.00117 1.5542C9.78919 1.5542 11.2387 3.00368 11.2387 4.7917C11.2387 6.57972 9.78919 8.0292 8.00117 8.0292C6.21315 8.0292 4.76367 6.57972 4.76367 4.7917Z" fill="#99A1AD"/>
<path id="Vector (Stroke)_2" fill-rule="evenodd" clip-rule="evenodd" d="M6.22987 8.16413L6.29198 8.23051C6.33183 8.27318 6.38958 8.33511 6.46143 8.41246C6.6051 8.56714 6.80534 8.78364 7.03174 9.03113C7.3332 9.36065 7.68363 9.74792 8.00943 10.1184L9.76144 8.1733C9.89641 8.02345 10.0965 7.94965 10.2964 7.97596C10.7749 8.03891 11.2461 8.31703 11.6536 8.65561C12.0743 9.00525 12.4878 9.46998 12.8517 10.0004C13.5736 11.0526 14.154 12.4432 14.154 13.8332H12.929C12.929 12.7623 12.4704 11.61 11.8416 10.6934C11.5301 10.2394 11.1902 9.86334 10.8706 9.59775C10.6931 9.45022 10.5374 9.34964 10.4088 9.285L8.45497 11.4541C8.33653 11.5856 8.16702 11.6594 7.99008 11.6566C7.81314 11.6538 7.64607 11.5745 7.5319 11.4393C7.12451 10.9569 6.57717 10.3491 6.12789 9.85798C5.93536 9.64752 5.76191 9.45965 5.62675 9.31389C5.11249 9.58527 4.53863 10.1034 4.05589 10.8141C3.46999 11.6767 3.0707 12.7484 3.0707 13.8332H1.8457C1.8457 12.4571 2.34694 11.1499 3.04254 10.1258C3.7299 9.11383 4.6602 8.30226 5.59496 8.00037C5.82046 7.92754 6.06773 7.99132 6.22987 8.16413Z" fill="#99A1AD"/>
<path id="Vector (Stroke)_3" fill-rule="evenodd" clip-rule="evenodd" d="M0.970703 13.8332C0.970703 13.4949 1.24493 13.2207 1.5832 13.2207H14.4165C14.7548 13.2207 15.029 13.4949 15.029 13.8332C15.029 14.1715 14.7548 14.4457 14.4165 14.4457H1.5832C1.24493 14.4457 0.970703 14.1715 0.970703 13.8332Z" fill="#99A1AD"/>
</g>
</svg>
