<svg xmlns="http://www.w3.org/2000/svg" width="16" height="16" viewBox="0 0 16 16" fill="none">
  <g clip-path="url(#clip0_25424_78910)">
    <rect x="4.53125" y="4.66406" width="3.79425" height="1.4" transform="rotate(-90 4.53125 4.66406)" fill="#BFD9FF"/>
    <rect x="10.0703" y="4.66406" width="3.79425" height="1.4" transform="rotate(-90 10.0703 4.66406)" fill="#BFD9FF"/>
    <rect x="2" y="0.5" width="12" height="1.4" rx="0.7" fill="#0065FF"/>
    <rect x="0.5" y="16" width="12" height="15" rx="2.8" transform="rotate(-90 0.5 16)" fill="#0065FF"/>
    <path fill-rule="evenodd" clip-rule="evenodd" d="M10 9.7C10 10.0866 9.6866 10.4 9.3 10.4L6.7 10.4C6.3134 10.4 6 10.0866 6 9.7C6 9.3134 6.3134 9 6.7 9L9.3 9C9.6866 9 10 9.3134 10 9.7Z" fill="white"/>
  </g>
  <defs>
    <clipPath id="clip0_25424_78910">
      <rect width="16" height="16" fill="white"/>
    </clipPath>
  </defs>
</svg>